<?xml version="1.0" encoding="UTF-8" standalone="no"?>
<!-- Created with Inkscape (http://www.inkscape.org/) -->

<svg
   width="64.0px"
   height="64.0px"
   viewBox="0 0 64.0 64.0"
   version="1.1"
   id="SVGRoot"
   sodipodi:docname="dwell-clicking.svg"
   inkscape:version="1.3.2 (091e20e, 2023-11-25, custom)"
   xml:space="preserve"
   xmlns:inkscape="http://www.inkscape.org/namespaces/inkscape"
   xmlns:sodipodi="http://sodipodi.sourceforge.net/DTD/sodipodi-0.dtd"
   xmlns="http://www.w3.org/2000/svg"
   xmlns:svg="http://www.w3.org/2000/svg"><sodipodi:namedview
     id="namedview1054"
     pagecolor="#505050"
     bordercolor="#ffffff"
     borderopacity="1"
     inkscape:showpageshadow="0"
     inkscape:pageopacity="0"
     inkscape:pagecheckerboard="1"
     inkscape:deskcolor="#505050"
     inkscape:document-units="px"
     showgrid="true"
     inkscape:zoom="8.242308"
     inkscape:cx="32.63649"
     inkscape:cy="31.544563"
     inkscape:current-layer="layer1"
     inkscape:window-width="1364"
     inkscape:window-height="1000"
     inkscape:window-x="547"
     inkscape:window-y="0"
     inkscape:window-maximized="0"><inkscape:grid
       type="xygrid"
       id="grid1540"
       empspacing="8"
       originx="0"
       originy="0"
       spacingy="1"
       spacingx="1"
       units="px"
       visible="true" /></sodipodi:namedview><defs
     id="defs1049" /><g
     inkscape:label="Layer 1"
     inkscape:groupmode="layer"
     id="layer1"><g
       inkscape:label="cursor"
       id="layer1-3"
       transform="translate(2.9179447,15.113792)"
       style="display:inline"><path
         style="opacity:1;fill:none;stroke:#ffffff;stroke-width:1;stroke-linecap:round;stroke-linejoin:round;stop-color:#000000"
         d="m 5,1 v 29 l 6,-6 5,7 6,-3 -4,-6 h 10 z"
         id="path26"
         sodipodi:nodetypes="cccccccc"
         inkscape:label="cursor" /><path
         style="display:none;opacity:1;fill:none;stroke:#000000;stroke-width:2;stroke-linecap:round;stroke-linejoin:round;stop-color:#000000"
         d="M 5,18.977829 C 13.15721,22.499704 17,16 17,16"
         id="path851"
         sodipodi:nodetypes="cc"
         inkscape:label="mouth" /><circle
         style="display:none;opacity:1;fill:#000000;stroke:none;stroke-width:2;stroke-linecap:round;stroke-linejoin:round;stop-color:#000000"
         id="path977"
         cx="8.3563318"
         cy="13.886208"
         r="1.7257235"
         inkscape:label="eye" /><circle
         style="display:none;fill:#000000;stroke:none;stroke-width:2;stroke-linecap:round;stroke-linejoin:round;stop-color:#000000"
         id="path977-3"
         cx="12.984397"
         cy="13.836293"
         r="1.8717158"
         inkscape:label="eye" /></g><g
       id="g7"
       inkscape:label="stopwatch"><circle
         style="display:none;fill:none;fill-opacity:1;stroke:#ffffff;-inkscape-stroke:none"
         id="path4"
         cx="44"
         cy="40"
         r="16"
         inkscape:label="body" /><path
         d="m 28.791016,35.171875 2.126953,1.941406 H 28.271484 A 16,16 0 0 0 28,40 16,16 0 0 0 44,56 16,16 0 0 0 60,40 16,16 0 0 0 44,24 16,16 0 0 0 28.791016,35.171875 Z"
         style="fill:none;stroke:#ffffff"
         id="path7"
         inkscape:label="body with cutout for cursor" /><path
         style="fill:none;stroke:#ffffff;stroke-width:1;stroke-linecap:square;stop-color:#000000"
         d="m 48,38 9.5,2 -9.5,2"
         id="path4096-9"
         sodipodi:nodetypes="ccc"
         inkscape:label="hand" /><path
         style="fill:none;stroke:#ffffff;stroke-width:1;stroke-linecap:square;stop-color:#000000"
         d="m 53.946329,27.479727 c 0.35314,-0.436052 0.789192,-0.872103 1.225243,-1.308155 C 56.585785,24.757358 58,23.343145 59.414213,24.757359 60.828427,26.171572 59.414214,27.585786 58,29 c -0.404575,0.404575 -0.809151,0.80915 -1.213726,1.147503"
         id="path4102-5"
         sodipodi:nodetypes="csssc"
         inkscape:label="doohickey" /><path
         style="fill:none;stroke:#ffffff;stroke-width:1;stroke-linecap:square;stop-color:#000000"
         d="M 33.053671,27.479727 C 32.700531,27.043675 32.264479,26.607624 31.828428,26.171572 30.414215,24.757358 29,23.343145 27.585787,24.757359 26.171573,26.171572 27.585786,27.585786 29,29 c 0.404575,0.404575 0.809151,0.80915 1.213726,1.147503"
         id="path4102-5-4"
         sodipodi:nodetypes="csssc"
         inkscape:label="doohickey" /><path
         style="fill:none;stroke:#ffffff;stroke-width:1;stroke-linecap:square;stop-color:#000000"
         d="m 42,23.5 c 0,-2 0,-2 2,-2 2,0 2,0 2,2"
         id="path4102-5-5"
         sodipodi:nodetypes="csc"
         inkscape:label="button plunger or winding thing shaft" /><path
         style="fill:none;stroke:#ffffff;stroke-width:1;stroke-linecap:square;stop-color:#000000"
         d="m 44,17.5 c 2,0 4,0 4,2 0,2 -2,2 -4,2 -2,0 -4,1e-6 -4,-2 0,-1.999999 2,-2 4,-2 z"
         id="path4102-5-5-1"
         sodipodi:nodetypes="zszsz"
         inkscape:label="button or winding thing" /><circle
         style="fill:none;fill-opacity:1;stroke:#ffffff;-inkscape-stroke:none"
         id="path5"
         cx="44"
         cy="40"
         r="4"
         inkscape:label="center" /></g><g
       id="g6"
       transform="translate(0,2)"
       inkscape:label="click effect"><path
         style="fill:none;stroke:#ffffff;stroke-width:1;stroke-linecap:square;stop-color:#000000"
         d="M 8,6 V 9"
         id="path4096-9-9"
         sodipodi:nodetypes="cc"
         inkscape:label="line" /><path
         style="fill:none;stroke:#ffffff;stroke-width:1;stroke-linecap:square;stop-color:#000000"
         d="m 2.5,12 h 3"
         id="path4096-9-9-95"
         sodipodi:nodetypes="cc"
         inkscape:label="line" /><path
         style="fill:none;stroke:#ffffff;stroke-width:1;stroke-linecap:square;stop-color:#000000"
         d="m 10.5,12 h 3"
         id="path4096-9-9-95-2"
         sodipodi:nodetypes="cc"
         inkscape:label="line" /><path
         style="fill:none;stroke:#ffffff;stroke-width:1;stroke-linecap:square;stop-color:#000000"
         d="M 12.236068,8 10,10"
         id="path4096-9-9-9"
         sodipodi:nodetypes="cc"
         inkscape:label="line" /><path
         style="fill:none;stroke:#ffffff;stroke-width:1;stroke-linecap:square;stop-color:#000000"
         d="M 4,7.763932 6,10"
         id="path4096-9-9-4"
         sodipodi:nodetypes="cc"
         inkscape:label="line" /></g></g></svg>
