<svg id="eqeF4hw1XAN1" xmlns="http://www.w3.org/2000/svg" xmlns:xlink="http://www.w3.org/1999/xlink" viewBox="0 0 64 64" shape-rendering="geometricPrecision" text-rendering="geometricPrecision">
<style><![CDATA[
#eqeF4hw1XAN4_ts {animation: eqeF4hw1XAN4_ts__ts 3000ms linear 1 normal forwards}@keyframes eqeF4hw1XAN4_ts__ts { 0% {transform: translate(11.783144px,15.033703px) scale(1,1);animation-timing-function: step-end} 70% {transform: translate(11.783144px,15.033703px) scale(1,1)} 73.333333% {transform: translate(11.783144px,15.033703px) scale(0.9,0.9);animation-timing-function: step-end} 76.666667% {transform: translate(11.783144px,15.033703px) scale(1,1);animation-timing-function: step-end} 100% {transform: translate(11.783144px,15.033703px) scale(1,1)}} #eqeF4hw1XAN11_tr {animation: eqeF4hw1XAN11_tr__tr 3000ms linear 1 normal forwards}@keyframes eqeF4hw1XAN11_tr__tr { 0% {transform: translate(44.09375px,40px) rotate(0deg)} 100% {transform: translate(44.09375px,40px) rotate(360deg)}} #eqeF4hw1XAN19 {animation: eqeF4hw1XAN19_c_o 3000ms linear 1 normal forwards}@keyframes eqeF4hw1XAN19_c_o { 0% {opacity: 0;animation-timing-function: step-end} 73.333333% {opacity: 1;animation-timing-function: step-end} 76.666667% {opacity: 0;animation-timing-function: step-end} 100% {opacity: 0}}
]]></style>
<g><g transform="translate(2.91794 15.1138)"><g id="eqeF4hw1XAN4_ts" transform="translate(11.783144,15.033703) scale(1,1)"><path d="M5,1v35.963506l7.440725-7.440725l6.200605,8.680846l7.440725-3.720363-4.960483-7.440725h12.401209L5,1Z" transform="translate(-11.983196,-15.567572)" fill="none" stroke="#fff" stroke-linecap="round" stroke-linejoin="round"/></g></g><g><path d="M28.791016,35.171875l7.65039,6.984375h-8.253906C29.263912,50.070879,36.012535,55.979259,44,56c8.836556,0,16-7.163444,16-16s-7.163444-16-16-16c-6.959925.019658-13.108792,4.536354-15.208984,11.171875Z" fill="none" stroke="#fff"/><g id="eqeF4hw1XAN11_tr" transform="translate(44.09375,40) rotate(0)"><path d="M48,38l9.5,2L48,42" transform="translate(-44.09375,-40)" fill="#fff" stroke="#fff" stroke-linecap="square"/></g><path d="M53.946329,27.479727c.35314-.436052.789192-.872103,1.225243-1.308155C56.585785,24.757358,58,23.343145,59.414213,24.757359s.000001,2.828427-1.414213,4.242641c-.404575.404575-.809151.80915-1.213726,1.147503" fill="none" stroke="#fff" stroke-linecap="square"/><path d="M33.053671,27.479727c-.35314-.436052-.789192-.872103-1.225243-1.308155C30.414215,24.757358,29,23.343145,27.585787,24.757359s-.000001,2.828427,1.414213,4.242641c.404575.404575.809151.80915,1.213726,1.147503" fill="none" stroke="#fff" stroke-linecap="square"/><path d="M42,23.5c0-2,0-2,2-2s2,0,2,2" fill="none" stroke="#fff" stroke-linecap="square"/><path d="M44,17.5c2,0,4,0,4,2s-2,2-4,2-4,.000001-4-2s2-2,4-2Z" fill="none" stroke="#fff" stroke-linecap="square"/><circle r="4" transform="translate(44 40)" fill="none" stroke="#fff"/><g><path d="M44,26v2" fill="none" stroke="#fff" stroke-linecap="square"/></g></g><g id="eqeF4hw1XAN19" transform="translate(0 2)" opacity="0"><path d="M8,6v3" fill="none" stroke="#fff" stroke-linecap="square"/><path d="M2.5,12h3" fill="none" stroke="#fff" stroke-linecap="square"/><path d="M10.5,12h3" fill="none" stroke="#fff" stroke-linecap="square"/><path d="M12.236068,8L10,10" fill="none" stroke="#fff" stroke-linecap="square"/><path d="M4,7.763932L6,10" fill="none" stroke="#fff" stroke-linecap="square"/></g></g></svg>
